<svg width="176" height="49" viewBox="0 0 176 49" fill="none" xmlns="http://www.w3.org/2000/svg">
<path d="M28.251 10.664L17.802 30.874V40.85H10.449V30.874L0 10.664H8.342L14.19 23.306L19.995 10.664H28.251Z" fill="black"/>
<path d="M53.8316 28.466C53.8316 29.154 53.7886 29.8707 53.7026 30.616H37.0616C37.1763 32.1067 37.6493 33.2533 38.4806 34.056C39.3406 34.83 40.387 35.217 41.6196 35.217C43.4543 35.217 44.73 34.443 45.4466 32.895H53.2726C52.8713 34.4717 52.1403 35.8907 51.0796 37.152C50.0476 38.4133 48.7433 39.4023 47.1666 40.119C45.59 40.8357 43.827 41.194 41.8776 41.194C39.527 41.194 37.4343 40.6923 35.5996 39.689C33.765 38.6857 32.3316 37.2523 31.2996 35.389C30.2676 33.5257 29.7516 31.347 29.7516 28.853C29.7516 26.359 30.2533 24.1803 31.2566 22.317C32.2886 20.4537 33.722 19.0203 35.5566 18.017C37.3913 17.0137 39.4983 16.512 41.8776 16.512C44.1996 16.512 46.2636 16.9993 48.0696 17.974C49.8756 18.9487 51.2803 20.339 52.2836 22.145C53.3156 23.951 53.8316 26.058 53.8316 28.466ZM46.3066 26.531C46.3066 25.2697 45.8766 24.2663 45.0166 23.521C44.1566 22.7757 43.0816 22.403 41.7916 22.403C40.559 22.403 39.5126 22.7613 38.6526 23.478C37.8213 24.1947 37.3053 25.2123 37.1046 26.531H46.3066Z" fill="black"/>
<path d="M67.4717 41.194C65.379 41.194 63.5157 40.8357 61.8817 40.119C60.2477 39.4023 58.9577 38.4277 58.0117 37.195C57.0657 35.9337 56.5354 34.529 56.4207 32.981H63.6877C63.7737 33.8123 64.1607 34.486 64.8487 35.002C65.5367 35.518 66.3824 35.776 67.3857 35.776C68.303 35.776 69.0054 35.604 69.4927 35.26C70.0087 34.8873 70.2667 34.4143 70.2667 33.841C70.2667 33.153 69.9084 32.6513 69.1917 32.336C68.475 31.992 67.314 31.6193 65.7087 31.218C63.9887 30.8167 62.5554 30.401 61.4087 29.971C60.262 29.5123 59.273 28.81 58.4417 27.864C57.6104 26.8893 57.1947 25.585 57.1947 23.951C57.1947 22.575 57.5674 21.328 58.3127 20.21C59.0867 19.0633 60.2047 18.1603 61.6667 17.501C63.1574 16.8417 64.9204 16.512 66.9557 16.512C69.9657 16.512 72.3307 17.2573 74.0507 18.748C75.7994 20.2387 76.8027 22.2167 77.0607 24.682H70.2667C70.152 23.8507 69.7794 23.1913 69.1487 22.704C68.5467 22.2167 67.744 21.973 66.7407 21.973C65.8807 21.973 65.2214 22.145 64.7627 22.489C64.304 22.8043 64.0747 23.2487 64.0747 23.822C64.0747 24.51 64.433 25.026 65.1497 25.37C65.895 25.714 67.0417 26.058 68.5897 26.402C70.367 26.8607 71.8147 27.3193 72.9327 27.778C74.0507 28.208 75.0254 28.9247 75.8567 29.928C76.7167 30.9027 77.161 32.2213 77.1897 33.884C77.1897 35.2887 76.7884 36.55 75.9857 37.668C75.2117 38.7573 74.0794 39.6173 72.5887 40.248C71.1267 40.8787 69.421 41.194 67.4717 41.194Z" fill="black"/>
<path d="M107.184 0L95.6595 48.891H88.5645L100.089 0H107.184Z" fill="black"/>
<path d="M146.401 40.85H139.048L126.75 22.231V40.85H119.397V10.664H126.75L139.048 29.369V10.664H146.401V40.85Z" fill="black"/>
<path d="M162.653 41.194C160.303 41.194 158.181 40.6923 156.289 39.689C154.426 38.6857 152.95 37.2523 151.86 35.389C150.8 33.5257 150.269 31.347 150.269 28.853C150.269 26.3877 150.814 24.2233 151.903 22.36C152.993 20.468 154.483 19.0203 156.375 18.017C158.267 17.0137 160.389 16.512 162.739 16.512C165.09 16.512 167.211 17.0137 169.103 18.017C170.995 19.0203 172.486 20.468 173.575 22.36C174.665 24.2233 175.209 26.3877 175.209 28.853C175.209 31.3183 174.65 33.497 173.532 35.389C172.443 37.2523 170.938 38.6857 169.017 39.689C167.125 40.6923 165.004 41.194 162.653 41.194ZM162.653 34.83C164.058 34.83 165.248 34.314 166.222 33.282C167.226 32.25 167.727 30.7737 167.727 28.853C167.727 26.9323 167.24 25.456 166.265 24.424C165.319 23.392 164.144 22.876 162.739 22.876C161.306 22.876 160.116 23.392 159.17 24.424C158.224 25.4273 157.751 26.9037 157.751 28.853C157.751 30.7737 158.21 32.25 159.127 33.282C160.073 34.314 161.249 34.83 162.653 34.83Z" fill="black"/>
</svg>
