<svg width="178" height="51" viewBox="0 0 178 51" fill="none" xmlns="http://www.w3.org/2000/svg">
<path d="M4.936 50.544C3.576 50.544 2.556 50.0907 1.876 49.184C1.24133 48.2773 1.06 47.008 1.332 45.376L7.52 6.412C7.74667 4.96133 8.29067 3.87333 9.152 3.148C10.0133 2.42266 11.1693 2.06 12.62 2.06H26.9C32.204 2.06 36.216 3.23866 38.936 5.596C41.7013 7.95333 43.084 11.1947 43.084 15.32C43.084 18.8107 42.2907 21.6893 40.704 23.956C39.1627 26.2227 37.0093 27.9227 34.244 29.056C31.524 30.144 28.4187 30.6653 24.928 30.62V29.6H26.696C28.8267 29.6 30.572 30.212 31.932 31.436C33.292 32.6147 34.38 34.2693 35.196 36.4L38.46 44.9C38.9133 46.0787 39.072 47.0987 38.936 47.96C38.8453 48.776 38.46 49.4107 37.78 49.864C37.1 50.3173 36.148 50.544 34.924 50.544C33.7453 50.544 32.7933 50.2493 32.068 49.66C31.388 49.0253 30.7987 48.0507 30.3 46.736L25.948 35.312C25.3587 33.68 24.5653 32.524 23.568 31.844C22.5707 31.164 21.1653 30.824 19.352 30.824H12.348L9.968 46.192C9.74133 47.6427 9.19733 48.7307 8.336 49.456C7.52 50.1813 6.38667 50.544 4.936 50.544ZM13.368 24.364H24.928C28.0107 24.364 30.3907 23.6613 32.068 22.256C33.7907 20.8053 34.652 18.72 34.652 16C34.652 13.6427 33.9267 11.8747 32.476 10.696C31.0253 9.51733 28.736 8.928 25.608 8.928H15.816L13.368 24.364ZM57.4092 50.68C55.3692 50.68 53.5105 50.2267 51.8332 49.32C50.1558 48.368 48.7958 47.1213 47.7532 45.58C46.7558 44.0387 46.2572 42.316 46.2572 40.412C46.2572 38.0547 46.9145 36.1507 48.2292 34.7C49.5438 33.204 51.5838 32.0933 54.3492 31.368C57.1145 30.6427 60.6505 30.28 64.9572 30.28H70.3972L69.6492 35.176H65.3652C62.6905 35.176 60.5598 35.312 58.9732 35.584C57.3865 35.856 56.2532 36.332 55.5732 37.012C54.8932 37.692 54.5532 38.644 54.5532 39.868C54.5532 41.4547 55.0745 42.6787 56.1172 43.54C57.2052 44.4013 58.5198 44.832 60.0612 44.832C61.5118 44.832 62.8265 44.5373 64.0052 43.948C65.1838 43.3133 66.1812 42.4293 66.9972 41.296C67.8132 40.1173 68.3345 38.7347 68.5612 37.148L69.8532 29.056C70.2158 26.9253 69.8758 25.2933 68.8332 24.16C67.8358 23.0267 66.0678 22.46 63.5292 22.46C62.0332 22.46 60.5825 22.6187 59.1772 22.936C57.7718 23.208 56.3212 23.684 54.8252 24.364C53.9638 24.7267 53.1932 24.84 52.5132 24.704C51.8332 24.568 51.2665 24.2733 50.8132 23.82C50.4052 23.3213 50.1785 22.7547 50.1332 22.12C50.0878 21.44 50.2692 20.7827 50.6772 20.148C51.1305 19.5133 51.8558 18.9693 52.8532 18.516C54.7572 17.6547 56.7292 17.0427 58.7692 16.68C60.8545 16.272 62.8038 16.068 64.6172 16.068C68.1985 16.068 71.0092 16.7253 73.0492 18.04C75.0892 19.3547 76.4718 21.1453 77.1972 23.412C77.9225 25.6787 78.0585 28.2627 77.6052 31.164L75.2252 46.328C75.0438 47.7333 74.5452 48.7987 73.7292 49.524C72.9585 50.204 71.9158 50.544 70.6012 50.544C69.3772 50.544 68.4478 50.1587 67.8132 49.388C67.2238 48.572 67.0425 47.3933 67.2692 45.852L67.9492 41.568L68.4252 42.928C67.7905 44.696 66.8838 46.1693 65.7052 47.348C64.5718 48.4813 63.2798 49.32 61.8292 49.864C60.4238 50.408 58.9505 50.68 57.4092 50.68ZM89.7007 50.544C88.386 50.544 87.4113 50.1133 86.7767 49.252C86.1873 48.3453 86.006 47.1213 86.2327 45.58L89.8367 23.14H86.9807C85.8927 23.14 85.054 22.9133 84.4647 22.46C83.9207 22.0067 83.6487 21.372 83.6487 20.556C83.6487 19.3773 83.9887 18.448 84.6687 17.768C85.394 17.088 86.346 16.748 87.5247 16.748H91.7407L90.6527 17.632L91.0607 15.116C91.6953 11.2173 93.2367 8.13466 95.6847 5.868C98.178 3.60133 101.737 2.30933 106.361 1.992L108.401 1.856C109.307 1.81066 110.01 1.992 110.509 2.4C111.007 2.76266 111.347 3.26133 111.529 3.896C111.71 4.48533 111.71 5.09733 111.529 5.732C111.393 6.36667 111.098 6.91066 110.645 7.364C110.237 7.81733 109.693 8.06666 109.013 8.112L107.109 8.248C104.887 8.42933 103.165 9.064 101.941 10.152C100.717 11.24 99.9233 12.8493 99.5607 14.98L99.1527 17.428L98.5407 16.748H116.969C118.283 16.748 119.258 17.1107 119.893 17.836C120.527 18.516 120.731 19.5813 120.505 21.032L116.493 46.328C116.311 47.7333 115.813 48.7987 114.997 49.524C114.181 50.204 113.047 50.544 111.597 50.544C110.282 50.544 109.307 50.1133 108.673 49.252C108.038 48.3453 107.834 47.1213 108.061 45.58L111.665 23.14H98.3367L94.5967 46.328C94.098 49.1387 92.466 50.544 89.7007 50.544ZM118.329 9.948C116.878 9.948 115.767 9.58533 114.997 8.86C114.271 8.08933 113.999 7.024 114.181 5.664C114.362 4.168 114.929 3.012 115.881 2.196C116.833 1.38 118.125 0.971999 119.757 0.971999C121.207 0.971999 122.318 1.35733 123.089 2.128C123.859 2.85333 124.154 3.896 123.973 5.256C123.791 6.79733 123.225 7.976 122.273 8.792C121.321 9.56266 120.006 9.948 118.329 9.948ZM129.027 50.544C127.712 50.544 126.738 50.1133 126.103 49.252C125.514 48.3907 125.332 47.1893 125.559 45.648L131.883 5.596C132.11 4.19066 132.631 3.17067 133.447 2.536C134.263 1.856 135.374 1.516 136.779 1.516C138.094 1.516 139.046 1.96933 139.635 2.876C140.27 3.73733 140.474 4.96133 140.247 6.548L136.371 30.892H136.507L149.767 18.72C150.674 17.8587 151.467 17.224 152.147 16.816C152.872 16.408 153.734 16.204 154.731 16.204C155.864 16.204 156.68 16.5213 157.179 17.156C157.723 17.7907 157.927 18.584 157.791 19.536C157.7 20.4427 157.224 21.304 156.363 22.12L143.035 34.632V30.96L153.847 44.56C154.572 45.4667 154.89 46.396 154.799 47.348C154.754 48.2547 154.414 49.0253 153.779 49.66C153.144 50.2493 152.283 50.544 151.195 50.544C150.016 50.544 149.087 50.2947 148.407 49.796C147.772 49.252 147.002 48.436 146.095 47.348L135.895 34.836H135.759L133.923 46.464C133.515 49.184 131.883 50.544 129.027 50.544ZM165.416 50.544C164.101 50.544 163.127 50.1133 162.492 49.252C161.903 48.3453 161.721 47.1213 161.948 45.58L165.96 20.42C166.187 19.0147 166.708 17.972 167.524 17.292C168.34 16.5667 169.451 16.204 170.856 16.204C172.171 16.204 173.123 16.6347 173.712 17.496C174.347 18.3573 174.551 19.5813 174.324 21.168L170.312 46.328C170.085 47.7333 169.564 48.7987 168.748 49.524C167.977 50.204 166.867 50.544 165.416 50.544ZM171.944 9.948C170.403 9.948 169.247 9.58533 168.476 8.86C167.751 8.08933 167.456 7.024 167.592 5.664C167.773 4.12266 168.363 2.96666 169.36 2.196C170.357 1.38 171.695 0.971999 173.372 0.971999C174.913 0.971999 176.069 1.35733 176.84 2.128C177.611 2.85333 177.905 3.896 177.724 5.256C177.543 6.79733 176.953 7.976 175.956 8.792C175.004 9.56266 173.667 9.948 171.944 9.948Z" fill="#F28300"/>
</svg>
