<svg width="176" height="50" viewBox="0 0 176 50" fill="none" xmlns="http://www.w3.org/2000/svg">
<path d="M28.6794 10.814L18.2304 31.024V41H10.8774V31.024L0.428441 10.814H8.77044L14.6184 23.456L20.4234 10.814H28.6794ZM54.2601 28.616C54.2601 29.304 54.2171 30.0207 54.1311 30.766H37.4901C37.6047 32.2567 38.0777 33.4033 38.9091 34.206C39.7691 34.98 40.8154 35.367 42.0481 35.367C43.8827 35.367 45.1584 34.593 45.8751 33.045H53.7011C53.2997 34.6217 52.5687 36.0407 51.5081 37.302C50.4761 38.5633 49.1717 39.5523 47.5951 40.269C46.0184 40.9857 44.2554 41.344 42.3061 41.344C39.9554 41.344 37.8627 40.8423 36.0281 39.839C34.1934 38.8357 32.7601 37.4023 31.7281 35.539C30.6961 33.6757 30.1801 31.497 30.1801 29.003C30.1801 26.509 30.6817 24.3303 31.6851 22.467C32.7171 20.6037 34.1504 19.1703 35.9851 18.167C37.8197 17.1637 39.9267 16.662 42.3061 16.662C44.6281 16.662 46.6921 17.1493 48.4981 18.124C50.3041 19.0987 51.7087 20.489 52.7121 22.295C53.7441 24.101 54.2601 26.208 54.2601 28.616ZM46.7351 26.681C46.7351 25.4197 46.3051 24.4163 45.4451 23.671C44.5851 22.9257 43.5101 22.553 42.2201 22.553C40.9874 22.553 39.9411 22.9113 39.0811 23.628C38.2497 24.3447 37.7337 25.3623 37.5331 26.681H46.7351ZM67.9001 41.344C65.8075 41.344 63.9441 40.9857 62.3101 40.269C60.6761 39.5523 59.3861 38.5777 58.4401 37.345C57.4941 36.0837 56.9638 34.679 56.8491 33.131H64.1161C64.2021 33.9623 64.5891 34.636 65.2771 35.152C65.9651 35.668 66.8108 35.926 67.8141 35.926C68.7315 35.926 69.4338 35.754 69.9211 35.41C70.4371 35.0373 70.6951 34.5643 70.6951 33.991C70.6951 33.303 70.3368 32.8013 69.6201 32.486C68.9035 32.142 67.7425 31.7693 66.1371 31.368C64.4171 30.9667 62.9838 30.551 61.8371 30.121C60.6905 29.6623 59.7015 28.96 58.8701 28.014C58.0388 27.0393 57.6231 25.735 57.6231 24.101C57.6231 22.725 57.9958 21.478 58.7411 20.36C59.5151 19.2133 60.6331 18.3103 62.0951 17.651C63.5858 16.9917 65.3488 16.662 67.3841 16.662C70.3941 16.662 72.7591 17.4073 74.4791 18.898C76.2278 20.3887 77.2311 22.3667 77.4891 24.832H70.6951C70.5805 24.0007 70.2078 23.3413 69.5771 22.854C68.9751 22.3667 68.1725 22.123 67.1691 22.123C66.3091 22.123 65.6498 22.295 65.1911 22.639C64.7325 22.9543 64.5031 23.3987 64.5031 23.972C64.5031 24.66 64.8615 25.176 65.5781 25.52C66.3235 25.864 67.4701 26.208 69.0181 26.552C70.7955 27.0107 72.2431 27.4693 73.3611 27.928C74.4791 28.358 75.4538 29.0747 76.2851 30.078C77.1451 31.0527 77.5895 32.3713 77.6181 34.034C77.6181 35.4387 77.2168 36.7 76.4141 37.818C75.6401 38.9073 74.5078 39.7673 73.0171 40.398C71.5551 41.0287 69.8495 41.344 67.9001 41.344ZM107.612 0.149998L96.088 49.041H88.993L100.517 0.149998H107.612ZM146.83 41H139.477L127.179 22.381V41H119.826V10.814H127.179L139.477 29.519V10.814H146.83V41ZM163.082 41.344C160.731 41.344 158.61 40.8423 156.718 39.839C154.854 38.8357 153.378 37.4023 152.289 35.539C151.228 33.6757 150.698 31.497 150.698 29.003C150.698 26.5377 151.242 24.3733 152.332 22.51C153.421 20.618 154.912 19.1703 156.804 18.167C158.696 17.1637 160.817 16.662 163.168 16.662C165.518 16.662 167.64 17.1637 169.532 18.167C171.424 19.1703 172.914 20.618 174.004 22.51C175.093 24.3733 175.638 26.5377 175.638 29.003C175.638 31.4683 175.079 33.647 173.961 35.539C172.871 37.4023 171.366 38.8357 169.446 39.839C167.554 40.8423 165.432 41.344 163.082 41.344ZM163.082 34.98C164.486 34.98 165.676 34.464 166.651 33.432C167.654 32.4 168.156 30.9237 168.156 29.003C168.156 27.0823 167.668 25.606 166.694 24.574C165.748 23.542 164.572 23.026 163.168 23.026C161.734 23.026 160.545 23.542 159.599 24.574C158.653 25.5773 158.18 27.0537 158.18 29.003C158.18 30.9237 158.638 32.4 159.556 33.432C160.502 34.464 161.677 34.98 163.082 34.98Z" fill="black"/>
</svg>
